<?xml version="1.0" standalone="no"?>
<svg viewBox="0 0 200 200" xmlns="http://www.w3.org/2000/svg">
  <path fill="#8A3FFC" d="M39,-69.9C48.5,-62.1,52.5,-47.4,56.4,-34.6C60.3,-21.8,63.9,-10.9,67.7,2.2C71.6,15.3,75.7,30.7,71.9,43.6C68.1,56.5,56.4,67,43.1,74.8C29.8,82.5,14.9,87.5,1,85.8C-13,84.2,-26,75.9,-40,68.5C-53.9,61.2,-68.8,54.8,-75.3,43.5C-81.8,32.2,-80,16.1,-77.8,1.2C-75.7,-13.6,-73.2,-27.2,-68.3,-41.3C-63.4,-55.4,-56.1,-69.9,-44.3,-76.3C-32.5,-82.7,-16.2,-81,-0.7,-79.7C14.8,-78.5,29.6,-77.7,39,-69.9Z" transform="translate(100 100)" />
</svg>
